<svg width="1200" height="630" viewBox="0 0 1200 630" fill="none" xmlns="http://www.w3.org/2000/svg">
  <rect width="1200" height="630" rx="40" fill="#FFF8F0"/>
  <rect x="44" y="44" width="1112" height="542" rx="32" fill="url(#bg)"/>
  <circle cx="214" cy="316" r="118" fill="#FFF4E4" stroke="#E6A817" stroke-width="10"/>
  <path d="M176 362C176 312.294 216.294 272 266 272H305C336.48 272 362 297.52 362 329C362 360.48 336.48 386 305 386H214C192.909 386 176 369.091 176 348V362Z" fill="#2E7D32"/>
  <path d="M186 252C217.333 214 284.8 186.8 342 258" stroke="#8B0000" stroke-width="18" stroke-linecap="round"/>
  <path d="M182 333C210.667 296.333 274.2 268.4 330 338" stroke="#E6A817" stroke-width="18" stroke-linecap="round"/>
  <text x="420" y="266" fill="#8B0000" font-size="44" font-family="Inter, Arial, sans-serif" font-weight="700" letter-spacing="6">SP PICKLES</text>
  <text x="420" y="352" fill="#241612" font-size="72" font-family="Georgia, 'Times New Roman', serif" font-weight="700">Authentic Homemade</text>
  <text x="420" y="434" fill="#241612" font-size="72" font-family="Georgia, 'Times New Roman', serif" font-weight="700">Andhra Pickles</text>
  <text x="420" y="500" fill="#6B5643" font-size="30" font-family="Inter, Arial, sans-serif">Traditional flavours, premium presentation, and a clear ordering journey.</text>
  <defs>
    <linearGradient id="bg" x1="72" y1="72" x2="1128" y2="558" gradientUnits="userSpaceOnUse">
      <stop stop-color="#FFF7E6"/>
      <stop offset="0.55" stop-color="#FFFDF8"/>
      <stop offset="1" stop-color="#EFF6EC"/>
    </linearGradient>
  </defs>
</svg>
